<svg xmlns="http://www.w3.org/2000/svg" xmlns:xlink="http://www.w3.org/1999/xlink" width="1920" height="1080" viewBox="0 0 1920 1080">
  <defs>
    <clipPath id="clip-Web_1920_1">
      <rect width="1920" height="1080"/>
    </clipPath>
  </defs>
  <g id="Web_1920_1" data-name="Web 1920 – 1" clip-path="url(#clip-Web_1920_1)">
    <rect width="1920" height="1080" fill="#fff"/>
    <text id="f" transform="translate(732 713)" fill="#066f45" font-size="695" font-family="SegoeUI, Segoe UI"><tspan x="0" y="0">f</tspan></text>
    <g id="Polygon_1" data-name="Polygon 1" transform="translate(1243.333 310) rotate(90)" fill="#17c388" opacity="0.37">
      <path d="M 235.6202697753906 317.5287780761719 C 234.2095031738281 317.5288696289062 232.7698669433594 317.4520874023438 231.3414001464844 317.3004760742188 L 157.6688995361328 309.4812316894531 C 156.2896270751953 309.3348693847656 154.8869934082031 309.2606811523438 153.5 309.2606811523438 C 152.1130065917969 309.2606811523438 150.7103729248047 309.3348693847656 149.3311004638672 309.4812316894531 L 75.65859985351562 317.3004760742188 C 74.231201171875 317.4519653320312 72.79156494140625 317.5287780761719 71.37969970703125 317.5287780761719 C 67.83906555175781 317.5287780761719 64.34796905517578 317.0503540039062 61.00336837768555 316.1067504882812 C 57.79233169555664 315.2008056640625 54.70826721191406 313.8648071289062 51.83689880371094 312.1359558105469 C 46.27429962158203 308.7866516113281 41.58530044555664 304.0058288574219 38.27679824829102 298.3103637695312 C 34.9833984375 292.6408996582031 33.16733169555664 286.2416687011719 33.02500152587891 279.8045349121094 C 32.95080184936523 276.4500427246094 33.32929992675781 273.0948181152344 34.15000152587891 269.8320007324219 C 35.0077018737793 266.4219970703125 36.35393142700195 263.0949401855469 38.15133285522461 259.9431457519531 L 87.20686340332031 173.9228820800781 C 88.20819854736328 172.1670074462891 89.08113098144531 170.3190460205078 89.80142974853516 168.4303131103516 L 117.5271682739258 95.72930908203125 C 119.0565338134766 91.71907806396484 121.1406021118164 88.0699462890625 123.7213973999023 84.88324737548828 C 126.1679306030273 81.86237335205078 129.0576019287109 79.2581787109375 132.3101348876953 77.14304351806641 C 135.4346923828125 75.11110687255859 138.8638000488281 73.54808044433594 142.5021667480469 72.49744415283203 C 146.0622711181641 71.46937561035156 149.7624664306641 70.94811248779297 153.5 70.94811248779297 C 157.2375335693359 70.94811248779297 160.9377288818359 71.46937561035156 164.4978332519531 72.49744415283203 C 168.1361999511719 73.54808044433594 171.5653076171875 75.11110687255859 174.6898651123047 77.14304351806641 C 177.9423980712891 79.2581787109375 180.8320617675781 81.86237335205078 183.2785949707031 84.88324737548828 C 185.8594055175781 88.0699462890625 187.9434661865234 91.71907806396484 189.4728393554688 95.72930908203125 L 217.1985626220703 168.4303131103516 C 217.9188385009766 170.3190460205078 218.7917633056641 172.1670074462891 219.7931365966797 173.9228820800781 L 268.8486938476562 259.9431457519531 C 270.6458740234375 263.0945129394531 271.9919128417969 266.4212036132812 272.8494567871094 269.8307800292969 C 273.6700134277344 273.0931396484375 274.0484313964844 276.4480285644531 273.9742126464844 279.8022155761719 C 273.831787109375 286.2386169433594 272.0159301757812 292.6373291015625 268.7229309082031 298.3066711425781 C 265.4144287109375 304.0026550292969 260.7254028320312 308.7840576171875 255.1627044677734 312.134033203125 C 252.2913360595703 313.8632507324219 249.2073059082031 315.1995544433594 245.9962615966797 316.1058044433594 C 242.6517333984375 317.0497131347656 239.1607666015625 317.5284729003906 235.6202697753906 317.5287780761719 Z" stroke="none"/>
      <path d="M 153.5 71.4481201171875 C 149.8094024658203 71.4481201171875 146.1558685302734 71.9627685546875 142.6408996582031 72.977783203125 C 139.0499725341797 74.01473999023438 135.6658935546875 75.55718994140625 132.5827026367188 77.56216430664062 C 129.3741302490234 79.64874267578125 126.5234985351562 82.2177734375 124.1099700927734 85.19790649414062 C 121.5624694824219 88.34347534179688 119.5048675537109 91.94668579101562 117.9943695068359 95.90744018554688 L 90.26863098144531 168.6084747314453 C 89.53926086425781 170.5210113525391 88.6552734375 172.3923797607422 87.64120483398438 174.1705780029297 L 38.58563232421875 260.1908569335938 C 36.81072998046875 263.30322265625 35.48150634765625 266.5880126953125 34.63485717773438 269.9539794921875 C 33.82513427734375 273.1733093261719 33.45166015625 276.4838256835938 33.52487182617188 279.7935180664062 C 33.66537475585938 286.1464233398438 35.45806884765625 292.4626159667969 38.70916748046875 298.0592346191406 C 41.97549438476562 303.6820678710938 46.60415649414062 308.401611328125 52.09480285644531 311.7075805664062 C 54.92803955078125 313.4135131835938 57.97096252441406 314.731689453125 61.13916015625 315.6255187988281 C 64.43955993652344 316.556640625 67.88496398925781 317.0287780761719 71.37969970703125 317.0287780761719 C 72.77413940429688 317.0287780761719 74.19599914550781 316.9529113769531 75.6058349609375 316.8032836914062 L 149.2783355712891 308.9840393066406 C 150.6748352050781 308.8358154296875 152.0952301025391 308.7606811523438 153.5 308.7606811523438 C 154.9047698974609 308.7606811523438 156.3251647949219 308.8358154296875 157.7216644287109 308.9840393066406 L 231.3941650390625 316.8032836914062 C 232.8040313720703 316.9529113769531 234.2259368896484 317.0287780761719 235.6203002929688 317.0287780761719 C 239.1146697998047 317.0287780761719 242.5597991943359 316.5566101074219 245.8599700927734 315.6254272460938 C 249.0279388427734 314.7315368652344 252.0707702636719 313.4132690429688 254.9038696289062 311.707275390625 C 260.3943786621094 308.4010620117188 265.0230712890625 303.6813049316406 268.2894897460938 298.0582275390625 C 271.5407104492188 292.4614868164062 273.3335571289062 286.145263671875 273.4743041992188 279.7925415039062 C 273.547607421875 276.48291015625 273.1742553710938 273.1725158691406 272.3646545410156 269.9533386230469 C 271.5181884765625 266.5875549316406 270.1890869140625 263.3029479980469 268.4143371582031 260.1908569335938 L 219.3587951660156 174.1705780029297 C 218.3448028564453 172.3925476074219 217.4608306884766 170.5211791992188 216.7313690185547 168.6084747314453 L 189.0056304931641 95.90744018554688 C 187.4951324462891 91.94668579101562 185.4375305175781 88.34347534179688 182.8900299072266 85.19790649414062 C 180.4765014648438 82.2177734375 177.6258392333984 79.64874267578125 174.4172668457031 77.56216430664062 C 171.3341064453125 75.55718994140625 167.9500274658203 74.01473999023438 164.3591003417969 72.977783203125 C 160.8441009521484 71.9627685546875 157.1905975341797 71.4481201171875 153.5 71.4481201171875 M 153.5 70.4481201171875 C 168.5288543701172 70.4481201171875 183.5577087402344 78.81576538085938 189.9400024414062 95.55111694335938 L 217.6657409667969 168.2521362304688 C 218.3791656494141 170.1228790283203 219.235595703125 171.9359436035156 220.2274780273438 173.6751708984375 L 269.2829895019531 259.6954345703125 C 284.3002319335938 286.0285949707031 264.8682250976562 318.0287780761719 235.6203155517578 318.0287780761719 C 234.1976013183594 318.0287780761719 232.7549743652344 317.9533081054688 231.2886352539062 317.7976684570312 L 157.6161346435547 309.9784545898438 C 154.8797454833984 309.6880798339844 152.1202545166016 309.6880798339844 149.3838653564453 309.9784545898438 L 75.71136474609375 317.7976684570312 C 74.2469482421875 317.9530944824219 72.80058288574219 318.0287780761719 71.37968444824219 318.0287780761719 C 42.128662109375 318.0287780761719 22.69879150390625 286.0302734375 37.71697998046875 259.6954345703125 L 86.77253723144531 173.6751708984375 C 87.76437377929688 171.9359436035156 88.62083435058594 170.1228790283203 89.33427429199219 168.2521362304688 L 117.0599975585938 95.55111694335938 C 123.4423065185547 78.81576538085938 138.4711456298828 70.4481201171875 153.5 70.4481201171875 Z" stroke="none" fill="#707070"/>
    </g>
    <g id="Polygon_2" data-name="Polygon 2" transform="translate(432 741) rotate(-90)" fill="#bb11c7" opacity="0.37">
      <path d="M 189.7096862792969 295.6798706054688 C 186.8041229248047 295.6798706054688 183.8448333740234 295.3150024414062 180.9130249023438 294.5951843261719 L 141.7027587890625 284.9685668945312 C 138.8576507568359 284.27001953125 135.9296264648438 283.9158630371094 133 283.9158630371094 C 130.0703735351562 283.9158630371094 127.1423416137695 284.27001953125 124.297233581543 284.9685668945312 L 85.08694458007812 294.5951843261719 C 82.15536499023438 295.3149108886719 79.19412994384766 295.6798706054688 76.28553009033203 295.6798706054688 C 73.01986694335938 295.6798706054688 69.78902435302734 295.2220153808594 66.6827392578125 294.319091796875 C 63.69742202758789 293.4513244628906 60.82768249511719 292.1736145019531 58.15328979492188 290.521484375 C 52.94110488891602 287.3016357421875 48.58568572998047 282.73681640625 45.55786895751953 277.320556640625 C 42.57226181030273 271.9798278808594 40.99892044067383 265.99951171875 41.0079460144043 260.0262145996094 C 41.0126838684082 256.8928833007812 41.45060348510742 253.7662048339844 42.30952453613281 250.7330017089844 C 43.21005249023438 247.5528411865234 44.58031463623047 244.4545593261719 46.38218307495117 241.5241851806641 L 84.74952697753906 179.1281585693359 C 86.62747192382812 176.0741271972656 88.04241943359375 172.767578125 88.95502471923828 169.3003692626953 L 98.66931915283203 132.3937683105469 C 99.79299926757812 128.1246337890625 101.5553131103516 124.2272644042969 103.9072875976562 120.809944152832 C 106.1200790405273 117.5948715209961 108.8448944091797 114.8145523071289 112.0060806274414 112.5462112426758 C 115.0238189697266 110.3808135986328 118.3933715820312 108.7116546630859 122.0211868286133 107.5851287841797 C 125.5578689575195 106.4868927001953 129.2516784667969 105.9300537109375 133 105.9300537109375 C 136.7493743896484 105.9300537109375 140.4436645507812 106.486686706543 143.9802398681641 107.5845260620117 C 147.6081390380859 108.7107391357422 150.9775238037109 110.379524230957 153.9948425292969 112.5445785522461 C 157.1556243896484 114.8125762939453 159.880126953125 117.5928421020508 162.0926818847656 120.8080749511719 C 164.4443664550781 124.2255249023438 166.2066650390625 128.1235198974609 167.3306579589844 132.3937835693359 L 177.0449523925781 169.3003387451172 C 177.9575500488281 172.7676086425781 179.3724975585938 176.0741577148438 181.2504425048828 179.1281585693359 L 219.6177825927734 241.5241851806641 C 221.4193725585938 244.4540557861328 222.7893981933594 247.5518188476562 223.6897888183594 250.7314147949219 C 224.548583984375 253.7641296386719 224.9864501953125 256.8903198242188 224.9912109375 260.0231323242188 C 225.0002899169922 265.9954528808594 223.4273681640625 271.9750061035156 220.4424285888672 277.3153991699219 C 217.4147338867188 282.7322998046875 213.0592651367188 287.2979125976562 207.8468475341797 290.5187377929688 C 205.17236328125 292.1712951660156 202.3026123046875 293.4494323730469 199.3172149658203 294.3177185058594 C 196.2108612060547 295.2210998535156 192.9800262451172 295.6794128417969 189.7144012451172 295.6798706054688 C 189.7129821777344 295.6798706054688 189.7111053466797 295.6798706054688 189.7096862792969 295.6798706054688 Z" stroke="none"/>
      <path d="M 133 106.4300231933594 C 129.302001953125 106.4300231933594 125.6580810546875 106.9793090820312 122.1694488525391 108.0626220703125 C 118.5930023193359 109.1732177734375 115.2716369628906 110.818359375 112.2975769042969 112.9524230957031 C 109.1834411621094 115.18701171875 106.4991302490234 117.926025390625 104.3191833496094 121.0933837890625 C 102 124.4630432128906 100.2618103027344 128.3078308105469 99.15284729003906 132.5210266113281 L 89.43855285644531 169.4276580810547 C 88.51339721679688 172.9424438476562 87.07908630371094 176.2942657470703 85.17544555664062 179.3900451660156 L 46.80807495117188 241.7860717773438 C 45.03028869628906 244.6772918701172 43.67860412597656 247.7332916259766 42.79057312011719 250.8692321777344 C 41.94413757324219 253.8583679199219 41.51260375976562 256.939453125 41.50791931152344 260.0269775390625 C 41.4990234375 265.914794921875 43.05039978027344 271.8104553222656 45.9942626953125 277.0765380859375 C 48.98068237304688 282.4187316894531 53.27607727050781 286.9208068847656 58.41604614257812 290.0960693359375 C 61.05204772949219 291.7244873046875 63.88031005859375 292.9837646484375 66.82229614257812 293.8389282226562 C 69.88320922851562 294.7286987304688 73.06710815429688 295.1798400878906 76.28550720214844 295.1798400878906 C 79.15394592285156 295.1798400878906 82.07505798339844 294.8197631835938 84.96771240234375 294.1095886230469 L 124.1780242919922 284.4829711914062 C 127.0621337890625 283.7748718261719 130.0302886962891 283.4158325195312 133 283.4158325195312 C 135.9697113037109 283.4158325195312 138.9378662109375 283.7748718261719 141.8219757080078 284.4829711914062 L 181.0322265625 294.1095886230469 C 183.9248657226562 294.8197631835938 186.8460083007812 295.1798400878906 189.7145080566406 295.1798400878906 C 192.9325561523438 295.1798400878906 196.1161499023438 294.7286682128906 199.1768951416016 293.8388366699219 C 202.11865234375 292.983642578125 204.9467926025391 291.7242736816406 207.5826873779297 290.0957641601562 C 212.7225341796875 286.9203186035156 217.0178985595703 282.4180297851562 220.0044250488281 277.0756225585938 C 222.9483947753906 271.8093872070312 224.4998931884766 265.9137573242188 224.4912109375 260.0260620117188 C 224.4866638183594 256.9385986328125 224.0552368164062 253.8576049804688 223.2089233398438 250.8686370849609 C 222.321044921875 247.7328338623047 220.9695281982422 244.6770477294922 219.1918640136719 241.7860717773438 L 180.8245239257812 179.3900756835938 C 178.9208374023438 176.2942047119141 177.4865264892578 172.9423675537109 176.5614318847656 169.4276275634766 L 166.8471374511719 132.5210571289062 C 165.7378692626953 128.3067321777344 163.9996643066406 124.4613037109375 161.6807861328125 121.0914916992188 C 159.5010681152344 117.9239807128906 156.8170776367188 115.18505859375 153.703369140625 112.9508056640625 C 150.729736328125 110.8171081542969 147.4085235595703 109.1723022460938 143.8320007324219 108.0620422363281 C 140.343505859375 106.9790954589844 136.6990814208984 106.4300231933594 133 106.4300231933594 M 132.9999847412109 105.4300231933594 C 148.0543518066406 105.4300231933594 163.1044921875 114.3733520507812 167.8141784667969 132.2665100097656 L 177.5284729003906 169.1730804443359 C 178.4278869628906 172.5901794433594 179.8255004882812 175.8562927246094 181.6763610839844 178.8662567138672 L 220.043701171875 241.2622833251953 C 235.2604827880859 266.0089721679688 216.4969635009766 296.1798400878906 189.7145080566406 296.1798400878906 C 186.8219909667969 296.1798400878906 183.8408203125 295.8288269042969 180.7938232421875 295.0807495117188 L 141.5835571289062 285.4541320800781 C 135.9449157714844 284.0697631835938 130.0550842285156 284.0697631835938 124.4164428710938 285.4541320800781 L 85.20613098144531 295.0807495117188 C 53.94633483886719 302.7554931640625 29.09609985351562 268.6816101074219 45.95623779296875 241.2622833251953 L 84.3236083984375 178.8662567138672 C 86.17446899414062 175.8562927246094 87.57205200195312 172.5902099609375 88.47149658203125 169.1731109619141 L 98.185791015625 132.2664794921875 C 102.8943481445312 114.377685546875 117.9492950439453 105.4300231933594 132.9999847412109 105.4300231933594 Z" stroke="none" fill="#707070"/>
    </g>
    <g id="Ellipse_1" data-name="Ellipse 1" transform="translate(577 206)" fill="#4e5fcc" stroke="#707070" stroke-width="1" opacity="0.4">
      <ellipse cx="126.5" cy="134.5" rx="126.5" ry="134.5" stroke="none"/>
      <ellipse cx="126.5" cy="134.5" rx="126" ry="134" fill="none"/>
    </g>
    <g id="Ellipse_2" data-name="Ellipse 2" transform="translate(361 29)" fill="#77f1e8" stroke="#707070" stroke-width="1" opacity="0.16">
      <ellipse cx="485.5" cy="467" rx="485.5" ry="467" stroke="none"/>
      <ellipse cx="485.5" cy="467" rx="485" ry="466.5" fill="none"/>
    </g>
  </g>
</svg>
